<svg width="54" height="49" viewBox="0 0 54 49" fill="none" xmlns="http://www.w3.org/2000/svg">
<g filter="url(#filter0_d_28_11)">
<rect x="4" y="40.6364" width="35.9277" height="46" rx="15" transform="rotate(-90 4 40.6364)" fill="#550495"/>
<rect x="4.5" y="40.1364" width="34.9277" height="45" rx="14.5" transform="rotate(-90 4.5 40.1364)" stroke="#171715"/>
</g>
<path d="M23.9601 8.24378C24.9665 5.3194 29.1034 5.3194 30.1098 8.24378C30.7471 10.0958 32.8662 10.9678 34.6221 10.1C37.3305 8.76144 40.2399 11.5202 39.0471 14.2958L38.7812 14.9146C38.003 16.7257 38.8765 18.8227 40.7094 19.5481C43.6626 20.717 43.6626 24.9007 40.7094 26.0695C38.8765 26.795 38.003 28.892 38.7812 30.7031L39.0471 31.3218C40.2399 34.0975 37.3305 36.8562 34.6221 35.5177C32.8662 34.6499 30.7471 35.5218 30.1098 37.3739C29.1034 40.2983 24.9665 40.2983 23.9601 37.3739C23.3227 35.5218 21.2036 34.6499 19.4477 35.5177C16.7394 36.8562 13.8299 34.0975 15.0227 31.3218L15.2886 30.7031C16.0669 28.892 15.1933 26.795 13.3604 26.0695C10.4072 24.9007 10.4072 20.717 13.3604 19.5481C15.1933 18.8227 16.0669 16.7257 15.2886 14.9146L15.0227 14.2958C13.8299 11.5202 16.7394 8.76144 19.4477 10.1C21.2036 10.9678 23.3227 10.0958 23.9601 8.24378Z" fill="#067E2F"/>
<path d="M29.6225 18.5653C29.5543 17.8778 29.2617 17.3437 28.7447 16.9631C28.2276 16.5824 27.5259 16.392 26.6396 16.392C26.0373 16.392 25.5288 16.4773 25.114 16.6477C24.6992 16.8125 24.381 17.0426 24.1594 17.3381C23.9435 17.6335 23.8356 17.9688 23.8356 18.3438C23.8242 18.6562 23.8896 18.929 24.0316 19.1619C24.1793 19.3949 24.381 19.5966 24.6367 19.767C24.8924 19.9318 25.1879 20.0767 25.5231 20.2017C25.8583 20.321 26.2163 20.4233 26.5969 20.5085L28.1651 20.8835C28.9265 21.054 29.6254 21.2812 30.2617 21.5653C30.8981 21.8494 31.4492 22.1989 31.9151 22.6136C32.381 23.0284 32.7418 23.517 32.9975 24.0795C33.2589 24.642 33.3924 25.2869 33.3981 26.0142C33.3924 27.0824 33.1197 28.0085 32.5799 28.7926C32.0458 29.571 31.2731 30.1761 30.2617 30.608C29.256 31.0341 28.043 31.2472 26.6225 31.2472C25.2134 31.2472 23.9862 31.0312 22.9407 30.5994C21.9009 30.1676 21.0884 29.5284 20.5032 28.6818C19.9237 27.8295 19.6197 26.7756 19.5913 25.5199H23.1623C23.2021 26.1051 23.3697 26.5937 23.6651 26.9858C23.9663 27.3722 24.3668 27.6648 24.8668 27.8636C25.3725 28.0568 25.9435 28.1534 26.5799 28.1534C27.2049 28.1534 27.7475 28.0625 28.2077 27.8807C28.6737 27.6989 29.0344 27.446 29.2901 27.1222C29.5458 26.7983 29.6737 26.4261 29.6737 26.0057C29.6737 25.6136 29.5572 25.2841 29.3242 25.017C29.0969 24.75 28.7617 24.5227 28.3185 24.3352C27.881 24.1477 27.3441 23.9773 26.7077 23.8239L24.8072 23.3466C23.3356 22.9886 22.1737 22.429 21.3214 21.6676C20.4691 20.9062 20.0458 19.8807 20.0515 18.5909C20.0458 17.5341 20.3271 16.6108 20.8952 15.821C21.4691 15.0312 22.256 14.4148 23.256 13.9716C24.256 13.5284 25.3924 13.3068 26.6651 13.3068C27.9606 13.3068 29.0913 13.5284 30.0572 13.9716C31.0288 14.4148 31.7844 15.0312 32.3242 15.821C32.864 16.6108 33.1424 17.5256 33.1594 18.5653H29.6225Z" fill="white"/>
<defs>
<filter id="filter0_d_28_11" x="0" y="4.70874" width="54" height="43.9277" filterUnits="userSpaceOnUse" color-interpolation-filters="sRGB">
<feFlood flood-opacity="0" result="BackgroundImageFix"/>
<feColorMatrix in="SourceAlpha" type="matrix" values="0 0 0 0 0 0 0 0 0 0 0 0 0 0 0 0 0 0 127 0" result="hardAlpha"/>
<feOffset dy="4"/>
<feGaussianBlur stdDeviation="2"/>
<feComposite in2="hardAlpha" operator="out"/>
<feColorMatrix type="matrix" values="0 0 0 0 0 0 0 0 0 0 0 0 0 0 0 0 0 0 0.25 0"/>
<feBlend mode="normal" in2="BackgroundImageFix" result="effect1_dropShadow_28_11"/>
<feBlend mode="normal" in="SourceGraphic" in2="effect1_dropShadow_28_11" result="shape"/>
</filter>
</defs>
</svg>
